<svg width="698" height="265" viewBox="0 0 698 265" fill="none" xmlns="http://www.w3.org/2000/svg">
<path d="M298.995 61.1118C300.015 61.1118 300.745 61.4718 301.185 62.1818C301.625 62.8918 301.845 63.7318 301.845 64.6818C301.845 65.2918 301.895 66.2418 301.995 67.5318C302.095 68.8218 302.115 70.0918 302.045 71.3518C301.975 72.6118 301.725 73.7318 301.285 74.7118C300.845 75.6918 300.075 76.1918 298.995 76.1918H262.425C259.845 76.1918 257.845 76.5618 256.415 77.3118C254.985 78.0618 253.935 79.1118 253.255 80.4718C252.575 81.8318 252.165 83.4118 252.035 85.2118C251.895 87.0118 251.835 89.0018 251.835 91.1718V114.912C251.835 117.022 251.905 119.002 252.035 120.872C252.175 122.742 252.575 124.332 253.255 125.662C253.935 126.982 254.985 128.042 256.415 128.822C257.845 129.602 259.845 129.992 262.425 129.992H298.995C300.015 129.992 300.745 130.352 301.185 131.062C301.625 131.772 301.845 132.612 301.845 133.562C301.845 134.242 301.895 135.222 301.995 136.512C302.095 137.802 302.115 139.092 302.045 140.382C301.975 141.672 301.725 142.772 301.285 143.692C300.845 144.612 300.075 145.072 298.995 145.072H261.915C256.685 145.072 252.425 144.292 249.135 142.732C245.835 141.172 243.275 139.002 241.445 136.212C239.615 133.432 238.375 130.062 237.725 126.122C237.075 122.182 236.755 117.842 236.755 113.082V93.0118C236.755 88.3918 237.065 84.1318 237.675 80.2318C238.285 76.3318 239.505 72.9618 241.345 70.1518C243.175 67.3318 245.745 65.1218 249.035 63.5318C252.325 61.9318 256.625 61.1418 261.925 61.1418H298.995V61.1118Z" fill="#2EC2F2"/>
<path d="M326.295 61.1118C327.315 61.1118 328.045 61.4718 328.485 62.1818C328.925 62.8918 329.145 63.7318 329.145 64.6818V114.802C329.145 116.972 329.295 118.982 329.605 120.812C329.905 122.642 330.465 124.242 331.285 125.602C332.105 126.962 333.185 128.012 334.545 128.762C335.905 129.512 337.605 129.882 339.635 129.882H372.745C373.765 129.882 374.495 130.242 374.935 130.952C375.375 131.662 375.595 132.502 375.595 133.442V141.492C375.595 142.442 375.375 143.272 374.935 143.992C374.495 144.702 373.765 145.062 372.745 145.062H339.125C333.825 145.062 329.535 144.262 326.235 142.672C322.945 141.072 320.395 138.852 318.595 136.002C316.795 133.152 315.575 129.772 314.925 125.862C314.275 121.962 313.955 117.702 313.955 113.082V64.6718C313.955 63.7218 314.175 62.8918 314.615 62.1718C315.055 61.4618 315.815 61.1018 316.905 61.1018H326.295V61.1118Z" fill="#F2F2F2"/>
<path d="M437.335 61.1118C442.635 61.1118 446.925 61.9118 450.225 63.5018C453.515 65.1018 456.085 67.3018 457.915 70.1218C459.745 72.9418 460.965 76.3018 461.585 80.2118C462.195 84.1218 462.505 88.3818 462.505 93.0018V113.172C462.505 117.792 462.195 122.052 461.585 125.952C460.975 129.862 459.765 133.232 457.965 136.092C456.165 138.942 453.615 141.172 450.325 142.762C447.035 144.362 442.705 145.152 437.335 145.152H412.475C407.175 145.152 402.885 144.332 399.585 142.702C396.295 141.072 393.745 138.832 391.945 135.982C390.145 133.132 388.945 129.752 388.335 125.842C387.725 121.942 387.415 117.712 387.415 113.162V92.9918C387.415 88.4418 387.715 84.2118 388.335 80.3118C388.945 76.4118 390.165 73.0318 392.005 70.1718C393.835 67.3218 396.385 65.0918 399.645 63.5018C402.905 61.9018 407.185 61.1118 412.485 61.1118H437.335ZM447.315 91.2618C447.315 89.1618 447.245 87.1918 447.115 85.3518C446.975 83.5218 446.585 81.9218 445.945 80.5618C445.295 79.2018 444.265 78.1318 442.835 77.3518C441.405 76.5718 439.405 76.1818 436.825 76.1818H412.985C410.475 76.1818 408.505 76.5718 407.075 77.3518C405.645 78.1318 404.595 79.2018 403.915 80.5618C403.235 81.9218 402.825 83.5218 402.695 85.3518C402.555 87.1818 402.495 89.1618 402.495 91.2618V115.002C402.495 117.102 402.565 119.082 402.695 120.912C402.825 122.742 403.235 124.322 403.915 125.652C404.595 126.972 405.645 128.032 407.075 128.812C408.495 129.592 410.465 129.982 412.985 129.982H436.825C439.405 129.982 441.405 129.592 442.835 128.812C444.265 128.032 445.295 126.982 445.945 125.652C446.585 124.322 446.975 122.752 447.115 120.912C447.245 119.082 447.315 117.112 447.315 115.002V91.2618Z" fill="#F2F2F2"/>
<path d="M544.295 61.1118C545.315 61.1118 546.045 61.4718 546.485 62.1818C546.925 62.8918 547.145 63.7318 547.145 64.6818V72.6318C547.145 73.5818 546.925 74.4118 546.485 75.1318C546.045 75.8418 545.315 76.2018 544.295 76.2018H501.005C498.495 76.2018 496.525 76.5918 495.095 77.3718C493.665 78.1518 492.595 79.2218 491.885 80.5818C491.175 81.9418 490.745 83.5418 490.615 85.3718C490.475 87.2018 490.415 89.1718 490.415 91.2818V114.812C490.415 116.922 490.485 118.902 490.615 120.772C490.755 122.642 491.155 124.232 491.835 125.562C492.515 126.892 493.565 127.942 494.995 128.722C496.425 129.502 498.425 129.892 501.005 129.892H529.525C530.335 129.892 530.985 129.692 531.455 129.282C531.925 128.872 532.275 128.352 532.475 127.702C532.675 127.062 532.795 126.382 532.835 125.662C532.865 124.952 532.885 124.282 532.885 123.672V109.512H507.415C506.325 109.512 505.585 109.142 505.175 108.392C504.765 107.642 504.565 106.802 504.565 105.842C504.565 105.232 504.515 104.302 504.415 103.042C504.315 101.782 504.295 100.512 504.365 99.2218C504.435 97.9318 504.685 96.8118 505.125 95.8618C505.565 94.9118 506.325 94.4318 507.415 94.4318H543.475C544.765 94.4318 545.685 94.8918 546.225 95.8118C546.765 96.7318 547.035 97.7618 547.035 98.9218V126.122C547.035 128.162 546.915 130.282 546.675 132.492C546.435 134.702 545.905 136.742 545.095 138.602C544.285 140.472 543.105 142.012 541.585 143.242C540.055 144.462 537.975 145.072 535.325 145.072H500.485C495.255 145.072 490.995 144.292 487.695 142.732C484.405 141.172 481.835 139.002 480.005 136.212C478.175 133.432 476.935 130.062 476.285 126.122C475.635 122.182 475.315 117.842 475.315 113.082V93.0118C475.315 88.3918 475.635 84.1518 476.285 80.2818C476.925 76.4118 478.155 73.0518 479.955 70.1918C481.755 67.3418 484.305 65.1118 487.595 63.5218C490.885 61.9218 495.185 61.1318 500.485 61.1318H544.295V61.1118Z" fill="#F2F2F2"/>
<path d="M573.225 61.1118C573.635 61.1118 574.205 61.3118 574.955 61.7218C575.705 62.1318 576.075 63.1118 576.075 64.6718V141.582C576.075 143.142 575.705 144.132 574.955 144.532C574.205 144.942 573.635 145.142 573.225 145.142H563.855C563.445 145.142 562.865 144.942 562.125 144.532C561.375 144.122 561.005 143.142 561.005 141.582V64.6718C561.005 63.1118 561.375 62.1218 562.125 61.7218C562.875 61.3118 563.445 61.1118 563.855 61.1118H573.225Z" fill="#F2F2F2"/>
<path d="M652.175 61.1118C653.195 61.1118 653.925 61.4718 654.365 62.1818C654.805 62.8918 655.025 63.7318 655.025 64.6818C655.025 65.2918 655.075 66.2418 655.175 67.5318C655.275 68.8218 655.295 70.0918 655.225 71.3518C655.155 72.6118 654.905 73.7318 654.465 74.7118C654.025 75.6918 653.255 76.1918 652.175 76.1918H615.605C613.025 76.1918 611.025 76.5618 609.595 77.3118C608.165 78.0618 607.115 79.1118 606.435 80.4718C605.755 81.8318 605.345 83.4118 605.215 85.2118C605.075 87.0118 605.015 89.0018 605.015 91.1718V114.912C605.015 117.022 605.085 119.002 605.215 120.872C605.355 122.742 605.755 124.332 606.435 125.662C607.115 126.982 608.165 128.042 609.595 128.822C611.025 129.602 613.025 129.992 615.605 129.992H652.175C653.195 129.992 653.925 130.352 654.365 131.062C654.805 131.772 655.025 132.612 655.025 133.562C655.025 134.242 655.075 135.222 655.175 136.512C655.275 137.802 655.295 139.092 655.225 140.382C655.155 141.672 654.905 142.772 654.465 143.692C654.025 144.612 653.255 145.072 652.175 145.072H615.095C609.865 145.072 605.605 144.292 602.315 142.732C599.015 141.172 596.455 139.002 594.625 136.212C592.795 133.432 591.555 130.062 590.905 126.122C590.255 122.182 589.935 117.842 589.935 113.082V93.0118C589.935 88.3918 590.245 84.1318 590.855 80.2318C591.465 76.3318 592.685 72.9618 594.525 70.1518C596.355 67.3318 598.925 65.1218 602.215 63.5318C605.505 61.9318 609.805 61.1418 615.105 61.1418H652.175V61.1118Z" fill="#F2F2F2"/>
<path d="M238.435 198.182C236.115 196.822 234.315 194.942 233.025 192.552C231.735 190.162 231.085 187.492 231.085 184.532C231.085 181.602 231.735 178.942 233.025 176.552C234.325 174.162 236.135 172.282 238.465 170.902C240.795 169.522 243.425 168.832 246.355 168.832C249.255 168.832 251.875 169.502 254.205 170.842C256.535 172.182 258.325 174.122 259.595 176.682L256.055 178.662C255.045 176.712 253.745 175.242 252.135 174.262C250.525 173.282 248.685 172.792 246.615 172.792C244.435 172.792 242.495 173.292 240.815 174.302C239.135 175.312 237.835 176.702 236.915 178.482C235.995 180.262 235.535 182.272 235.535 184.522C235.535 186.762 235.995 188.782 236.915 190.562C237.835 192.342 239.135 193.742 240.815 194.742C242.495 195.752 244.435 196.252 246.615 196.252C248.685 196.252 250.535 195.762 252.155 194.782C253.775 193.802 255.095 192.342 256.105 190.382L259.595 192.362C258.335 194.922 256.535 196.872 254.205 198.202C251.875 199.542 249.255 200.202 246.355 200.202C243.385 200.232 240.745 199.552 238.435 198.182Z" fill="#F2F2F2"/>
<path d="M270.835 198.142C268.475 196.752 266.645 194.862 265.335 192.472C264.025 190.082 263.375 187.442 263.375 184.532C263.375 181.632 264.025 178.982 265.335 176.602C266.645 174.212 268.475 172.322 270.835 170.932C273.195 169.542 275.865 168.842 278.855 168.842C281.845 168.842 284.515 169.542 286.875 170.932C289.235 172.322 291.075 174.212 292.395 176.602C293.715 178.992 294.375 181.632 294.375 184.532C294.375 187.432 293.715 190.082 292.395 192.472C291.075 194.862 289.235 196.752 286.875 198.142C284.515 199.542 281.845 200.232 278.855 200.232C275.865 200.232 273.195 199.532 270.835 198.142ZM284.615 194.752C286.295 193.742 287.605 192.352 288.535 190.572C289.465 188.792 289.935 186.772 289.935 184.532C289.935 182.292 289.465 180.282 288.535 178.492C287.605 176.712 286.295 175.312 284.615 174.312C282.935 173.302 281.015 172.802 278.855 172.802C276.695 172.802 274.785 173.302 273.115 174.312C271.445 175.322 270.145 176.712 269.215 178.492C268.285 180.272 267.815 182.282 267.815 184.532C267.815 186.772 268.285 188.792 269.215 190.572C270.145 192.352 271.455 193.752 273.115 194.752C274.785 195.762 276.695 196.262 278.855 196.262C281.015 196.262 282.935 195.762 284.615 194.752Z" fill="#F2F2F2"/>
<path d="M320.625 171.252C322.885 172.462 324.635 174.202 325.885 176.472C327.135 178.742 327.765 181.432 327.765 184.532C327.765 187.642 327.145 190.322 325.885 192.592C324.635 194.862 322.885 196.602 320.625 197.812C318.365 199.022 315.785 199.622 312.885 199.622H301.325V169.432H312.885C315.785 169.442 318.365 170.042 320.625 171.252ZM320.555 192.792C322.395 190.852 323.315 188.102 323.315 184.532C323.315 180.962 322.395 178.212 320.555 176.272C318.715 174.332 316.155 173.362 312.885 173.362H305.555V195.702H312.885C316.165 195.702 318.715 194.732 320.555 192.792Z" fill="#F2F2F2"/>
<path d="M355.965 195.752V199.632H334.705V169.442H355.535V173.322H338.935V182.462H354.625V186.302H338.935V195.752H355.965Z" fill="#F2F2F2"/>
<path d="M404.995 169.442V199.632H400.855V175.872L390.805 191.872H387.355L377.315 175.872V199.632H373.215V169.442H377.825L389.125 187.422L400.385 169.442H404.995Z" fill="#F2F2F2"/>
<path d="M434.885 195.752V199.632H413.625V169.442H434.455V173.322H417.845V182.462H433.545V186.302H417.845V195.752H434.885Z" fill="#F2F2F2"/>
<path d="M463.555 195.752V199.632H442.295V169.442H463.125V173.322H446.525V182.462H462.225V186.302H446.525V195.752H463.555Z" fill="#F2F2F2"/>
<path d="M477.445 173.372H467.525V169.442H491.585V173.372H481.665V199.632H477.445V173.372Z" fill="#F2F2F2"/>
<path d="M498.915 198.382C496.785 197.142 495.265 195.432 494.345 193.252L497.665 191.222C498.465 192.892 499.665 194.172 501.245 195.062C502.825 195.952 504.665 196.402 506.765 196.402C508.925 196.402 510.615 195.952 511.855 195.042C513.095 194.132 513.715 192.922 513.715 191.402C513.715 190.252 513.305 189.302 512.485 188.552C511.665 187.802 510.355 187.202 508.535 186.742L503.665 185.582C498.055 184.232 495.255 181.512 495.255 177.432C495.255 175.762 495.695 174.282 496.575 172.992C497.455 171.702 498.715 170.682 500.375 169.952C502.025 169.222 503.975 168.852 506.215 168.852C508.915 168.852 511.245 169.352 513.205 170.362C515.165 171.372 516.545 172.702 517.345 174.372L514.115 176.482C513.365 175.242 512.305 174.302 510.925 173.652C509.545 173.002 507.965 172.682 506.185 172.682C504.115 172.682 502.495 173.102 501.335 173.932C500.175 174.762 499.585 175.912 499.585 177.382C499.585 178.502 499.985 179.422 500.795 180.122C501.595 180.832 502.955 181.392 504.845 181.822L509.715 183.032C512.585 183.722 514.705 184.742 516.055 186.092C517.405 187.442 518.085 189.152 518.085 191.222C518.085 193.002 517.635 194.582 516.745 195.942C515.855 197.312 514.555 198.362 512.845 199.112C511.135 199.862 509.085 200.232 506.695 200.232C503.635 200.232 501.045 199.612 498.915 198.382Z" fill="#F2F2F2"/>
<path d="M554.205 195.702V199.632H534.195V169.442H538.415V195.702H554.205Z" fill="#F2F2F2"/>
<path d="M563.905 198.142C561.545 196.752 559.715 194.862 558.405 192.472C557.095 190.082 556.445 187.442 556.445 184.532C556.445 181.632 557.095 178.982 558.405 176.602C559.715 174.212 561.545 172.322 563.905 170.932C566.265 169.542 568.935 168.842 571.925 168.842C574.915 168.842 577.585 169.542 579.945 170.932C582.305 172.322 584.145 174.212 585.465 176.602C586.785 178.992 587.445 181.632 587.445 184.532C587.445 187.432 586.785 190.082 585.465 192.472C584.145 194.862 582.305 196.752 579.945 198.142C577.585 199.542 574.915 200.232 571.925 200.232C568.935 200.232 566.265 199.532 563.905 198.142ZM577.685 194.752C579.365 193.742 580.675 192.352 581.605 190.572C582.535 188.792 583.005 186.772 583.005 184.532C583.005 182.292 582.535 180.282 581.605 178.492C580.675 176.712 579.365 175.312 577.685 174.312C576.005 173.302 574.085 172.802 571.925 172.802C569.765 172.802 567.855 173.302 566.185 174.312C564.515 175.322 563.215 176.712 562.285 178.492C561.355 180.272 560.885 182.282 560.885 184.532C560.885 186.772 561.355 188.792 562.285 190.572C563.215 192.352 564.515 193.752 566.185 194.752C567.855 195.762 569.765 196.262 571.925 196.262C574.085 196.262 576.005 195.762 577.685 194.752Z" fill="#F2F2F2"/>
<path d="M620.785 183.332V195.362C619.605 196.892 617.955 198.082 615.845 198.942C613.735 199.802 611.365 200.232 608.755 200.232C605.505 200.232 602.675 199.572 600.255 198.252C597.845 196.932 595.975 195.082 594.675 192.712C593.365 190.342 592.715 187.642 592.715 184.622C592.715 181.542 593.375 178.812 594.695 176.432C596.015 174.042 597.845 172.182 600.195 170.842C602.535 169.502 605.205 168.832 608.195 168.832C610.835 168.832 613.185 169.352 615.245 170.382C617.305 171.422 618.935 172.872 620.145 174.742L616.915 177.072C615.995 175.692 614.795 174.632 613.315 173.902C611.835 173.172 610.145 172.802 608.245 172.802C606.035 172.802 604.095 173.292 602.425 174.272C600.755 175.252 599.465 176.642 598.545 178.432C597.625 180.232 597.165 182.302 597.165 184.662C597.165 187.072 597.635 189.152 598.585 190.892C599.535 192.632 600.875 193.972 602.615 194.902C604.355 195.832 606.405 196.302 608.765 196.302C610.485 196.302 612.045 196.072 613.445 195.612C614.835 195.152 615.935 194.532 616.745 193.762V187.122H608.985V183.322H620.785V183.332Z" fill="#F2F2F2"/>
<path d="M632.305 169.442H628.075V199.632H632.305V169.442Z" fill="#F2F2F2"/>
<path d="M646.685 198.182C644.365 196.822 642.565 194.942 641.275 192.552C639.985 190.162 639.335 187.492 639.335 184.532C639.335 181.602 639.985 178.942 641.275 176.552C642.565 174.162 644.375 172.282 646.705 170.902C649.035 169.522 651.665 168.832 654.595 168.832C657.495 168.832 660.115 169.502 662.445 170.842C664.775 172.182 666.565 174.122 667.835 176.682L664.295 178.662C663.285 176.712 661.985 175.242 660.375 174.262C658.765 173.282 656.925 172.792 654.855 172.792C652.675 172.792 650.735 173.292 649.055 174.302C647.375 175.312 646.075 176.702 645.155 178.482C644.235 180.262 643.775 182.272 643.775 184.522C643.775 186.762 644.235 188.782 645.155 190.562C646.075 192.342 647.375 193.742 649.055 194.742C650.735 195.752 652.665 196.252 654.855 196.252C656.925 196.252 658.775 195.762 660.395 194.782C662.015 193.802 663.335 192.342 664.345 190.382L667.835 192.362C666.565 194.922 664.775 196.872 662.445 198.202C660.115 199.542 657.495 200.202 654.595 200.202C651.635 200.232 648.995 199.552 646.685 198.182Z" fill="#F2F2F2"/>
<path d="M211.705 72.9318C199.125 82.6918 186.745 92.3118 174.345 101.932C169.695 97.3418 165.195 92.8818 160.695 88.4318C158.635 86.3918 156.325 84.5318 154.565 82.2518C151.845 78.7318 148.535 77.6018 144.185 77.9618C139.895 78.3118 135.545 78.0418 131.225 78.0418C130.985 77.6618 130.745 77.2718 130.505 76.8918C132.745 74.9418 134.935 72.9418 137.245 71.1018C137.795 70.6618 138.765 70.6018 139.545 70.6018C146.535 70.5918 153.525 70.5718 160.505 70.7418C161.515 70.7718 162.805 71.5518 163.455 72.3818C165.975 75.5918 169.565 76.1918 172.415 73.6618C174.755 71.5818 174.865 67.5418 172.635 65.3618C170.115 62.8918 166.155 63.4218 163.535 66.3818C162.875 67.1218 161.635 67.7218 160.655 67.7418C153.305 67.8818 145.955 67.7818 138.605 67.9418C137.415 67.9618 136.005 68.6018 135.105 69.4118C132.625 71.6618 130.405 74.2018 127.975 76.5018C127.255 77.1918 126.165 77.8818 125.235 77.8918C117.525 77.9918 109.805 77.9318 102.095 77.9018C101.755 77.9018 101.415 77.7618 100.785 77.6218C100.785 72.1618 100.745 66.7418 100.845 61.3318C100.855 60.6518 101.505 59.8618 102.045 59.3218C106.075 55.2718 110.095 51.1918 114.275 47.2918C115.205 46.4218 116.755 45.7918 118.035 45.7718C125.925 45.6418 133.825 45.7418 141.725 45.7118C143.195 45.7018 144.185 45.9918 145.035 47.4218C146.485 49.8418 148.985 50.5718 151.655 49.7918C154.235 49.0318 155.635 47.2518 155.715 44.6218C155.795 41.9218 154.595 39.9018 151.975 38.8918C149.485 37.9318 146.835 38.5418 145.275 40.9818C144.205 42.6518 142.975 42.9118 141.245 42.9018C133.165 42.8518 125.085 42.8518 117.015 42.9818C115.885 43.0018 114.495 43.4818 113.685 44.2418C108.875 48.7918 104.155 53.4418 99.535 58.1918C98.705 59.0418 98.125 60.5118 98.095 61.7118C97.955 66.7018 97.8951 71.7018 98.1451 76.6818C98.2851 79.4118 97.385 81.3118 95.375 83.0218C94.365 83.8818 93.715 85.1618 92.905 86.2518C92.615 86.0718 92.3151 85.8918 92.0151 85.7018C91.9351 85.0618 91.775 84.4218 91.775 83.7818C91.775 75.7918 91.8051 67.8118 91.7951 59.8218C91.7951 58.1918 92.055 57.0118 93.715 56.0418C96.035 54.6918 96.7751 51.7018 95.8251 49.3218C94.8051 46.7818 92.9351 45.4518 90.1351 45.5418C87.3551 45.6318 85.5851 46.9918 84.8351 49.7618C84.1051 52.4318 84.845 54.7418 87.245 56.0918C88.735 56.9318 88.9251 57.9618 88.9251 59.3918C88.9151 68.7418 89.025 78.0918 88.875 87.4418C88.855 88.7518 87.9951 90.4818 86.9551 91.2718C82.6151 94.5618 81.665 98.7318 81.745 104.032C82.055 124.632 81.865 145.242 81.975 165.842C81.985 167.222 82.545 168.932 83.465 169.902C88.225 174.892 93.2151 179.652 98.0551 184.562C99.4751 186.002 100.945 186.672 103.065 186.652C117.675 186.542 132.295 186.522 146.905 186.622C149.385 186.642 151.165 185.912 152.835 184.132C159.685 176.882 166.625 169.722 173.605 162.462C186.885 172.372 199.435 181.732 212.275 191.312C209.675 193.992 207.275 196.542 204.805 199.022C193.665 210.212 182.495 221.372 171.385 232.602C169.955 234.052 168.505 234.762 166.405 234.722C159.695 234.592 152.975 234.762 146.255 234.602C144.875 234.572 143.205 233.952 142.215 233.022C138.445 229.492 134.785 225.822 131.315 221.992C129.815 220.332 128.275 219.802 126.125 219.812C114.595 219.892 103.075 219.812 91.5451 219.882C89.6651 219.892 88.345 219.312 87.025 217.982C78.225 209.072 69.3151 200.272 60.5451 191.342C59.6351 190.422 58.865 188.892 58.845 187.642C58.675 171.852 58.6351 156.062 58.6651 140.262C58.6651 139.222 59.335 138.092 59.945 137.182C60.595 136.222 61.4251 135.282 62.3851 134.642C67.3851 131.312 68.585 126.712 68.225 120.882C67.745 113.012 68.115 105.092 68.275 97.2018C68.295 96.1818 69.0451 94.9218 69.8551 94.2218C72.0351 92.3418 72.9951 89.8018 72.0851 87.2018C71.2451 84.7618 69.455 83.5618 66.945 83.4918C64.145 83.4218 62.3451 84.9018 61.3851 87.4518C60.4951 89.8118 61.465 92.3418 63.565 94.2318C64.375 94.9618 65.1551 96.2318 65.1751 97.2718C65.3151 106.892 65.335 116.512 65.255 126.132C65.245 127.172 64.655 128.382 63.955 129.202C62.425 130.992 60.8151 132.782 58.9651 134.202C56.3651 136.192 55.8251 138.672 55.8551 141.782C55.9951 155.572 55.9251 169.372 55.9351 183.172C55.9351 184.062 55.9351 184.962 55.9351 185.942C52.1951 184.452 50.025 181.352 50.035 177.772C50.065 159.622 50.105 141.472 50.095 123.312C50.095 121.582 50.335 120.352 52.085 119.352C54.335 118.062 54.9351 115.312 54.0451 112.862C53.1451 110.392 50.995 108.972 48.345 109.102C45.655 109.242 43.9651 110.702 43.1851 113.202C42.4251 115.642 43.4351 118.202 45.3851 119.722C46.1151 120.292 46.9651 121.292 46.9851 122.112C47.1351 130.092 47.1151 138.082 47.1351 146.072C47.1351 146.322 46.985 146.572 46.785 147.232C43.725 144.282 40.8351 141.502 37.9351 138.702C37.6051 138.382 37.365 137.962 37.005 137.712C31.115 133.662 29.7151 128.132 30.0451 121.122C30.6351 109.082 30.145 96.9818 30.225 84.9118C30.235 83.7018 30.745 82.1918 31.565 81.3518C47.875 64.6918 64.2451 48.0918 80.6751 31.5518C81.5151 30.7018 83.015 30.0718 84.215 30.0718C111.895 29.9818 139.575 29.9818 167.265 30.0418C168.325 30.0418 169.685 30.4618 170.405 31.1918C183.955 44.7118 197.435 58.3118 210.925 71.9018C211.175 72.1718 211.365 72.4818 211.705 72.9318ZM89.4251 197.332C89.6151 197.082 89.805 196.842 89.995 196.592C97.065 196.592 104.135 196.612 111.215 196.572C112.695 196.562 113.645 196.922 114.475 198.352C115.865 200.742 118.655 201.602 121.095 200.812C123.455 200.042 125.155 197.712 125.145 195.232C125.145 192.662 123.375 190.302 120.865 189.532C118.535 188.822 116.105 189.862 114.395 191.922C113.715 192.742 112.505 193.592 111.515 193.612C103.625 193.782 95.7251 193.802 87.8351 193.742C86.8751 193.732 85.695 193.262 85.005 192.602C81.455 189.222 77.985 185.772 74.625 182.212C73.855 181.392 73.275 180.042 73.255 178.922C73.155 173.212 73.295 167.492 73.275 161.772C73.265 160.122 73.635 158.962 75.155 157.942C77.505 156.382 78.225 153.602 77.215 151.222C76.165 148.732 74.2551 147.342 71.5151 147.362C68.9351 147.372 66.8851 149.062 66.1451 151.602C65.4051 154.162 66.2351 156.812 68.6751 158.182C70.1651 159.012 70.3651 160.032 70.3651 161.462C70.3751 167.452 70.3251 173.442 70.5551 179.422C70.6051 180.872 71.275 182.632 72.275 183.652C80.855 192.392 89.5351 201.032 98.2951 209.592C99.1951 210.482 100.775 211.102 102.045 211.112C114.835 211.232 127.635 211.212 140.425 211.182C142.155 211.182 143.395 211.382 144.395 213.172C145.715 215.532 148.035 216.352 150.735 215.582C153.375 214.832 154.955 212.852 154.955 210.242C154.965 207.622 153.855 205.672 151.315 204.752C148.735 203.822 146.225 204.702 144.415 206.632C143.615 207.482 142.285 208.322 141.185 208.332C128.395 208.482 115.595 208.472 102.805 208.482C102.025 208.482 101.005 208.442 100.515 207.982C96.7651 204.492 93.1151 200.892 89.4251 197.332Z" fill="#2EC2F2"/>
<path d="M139.075 234.632C136.455 234.632 133.835 234.632 131.215 234.632C115.695 234.642 100.175 234.692 84.655 234.602C83.385 234.592 81.775 234.002 80.885 233.112C64.565 216.832 48.355 200.452 32.065 184.142C30.755 182.822 30.155 181.522 30.165 179.632C30.245 165.742 30.205 151.862 30.215 137.972C30.215 137.192 30.215 136.412 30.215 134.952C32.035 136.672 33.415 137.932 34.735 139.232C37.065 141.522 39.125 144.162 41.725 146.072C46.205 149.362 47.625 153.462 47.295 158.922C46.875 165.882 47.145 172.892 47.315 179.882C47.345 181.152 48.005 182.712 48.895 183.622C61.405 196.262 73.9851 208.822 86.6451 221.322C87.4651 222.132 89.035 222.542 90.255 222.552C102.055 222.642 113.855 222.552 125.645 222.682C126.995 222.692 128.605 223.402 129.625 224.322C133.045 227.392 136.245 230.702 139.525 233.912C139.375 234.152 139.225 234.392 139.075 234.632Z" fill="#2EC2F2"/>
</svg>
