<?xml version="1.0" encoding="utf-8"?>
<!-- Generator: Adobe Illustrator 26.0.3, SVG Export Plug-In . SVG Version: 6.00 Build 0)  -->
<svg version="1.1" id="Layer_1" xmlns="http://www.w3.org/2000/svg" xmlns:xlink="http://www.w3.org/1999/xlink" x="0px" y="0px"
	 viewBox="0 0 2400 808" style="enable-background:new 0 0 2400 808;" xml:space="preserve">
<style type="text/css">
	.st0{fill:#1EC4F7;}
	.st1{fill:#000070;}
</style>
<g>
	<g>
		<g>
			<path class="st0" d="M482.4,236.7c-10.4,0-18.8-8.4-18.8-18.8c0-10.4,8.4-18.8,18.8-18.8l98.3,0c10.4,0,18.8,8.4,18.8,18.8
				c0,10.4-8.4,18.8-18.8,18.8L482.4,236.7z"/>
			<path class="st0" d="M288.3,684.4c-40.9-14.7-78.8-38.8-109.7-69.7C122.3,558.4,91.3,483.6,91.3,404c0-44.3,9.5-86.8,28.2-126.6
				l34.1,16C137.3,328.1,129,365.3,129,404c0,69.5,27.1,134.9,76.2,184.1c27,27,60.1,48,95.8,60.9L288.3,684.4z"/>
			<rect x="389.3" y="664.3" class="st0" width="191.4" height="37.7"/>
			<path class="st0" d="M184.4,404c0-110.3,87.6-200.6,197-204.8l87.7-87.7c3.5-3.5,8.3-5.5,13.3-5.5h98.3v37.7h-90.5l-87.5,87.5
				c-3.5,3.5-8.3,5.5-13.3,5.5c-92.2,0-167.3,75-167.3,167.3L184.4,404z"/>
			<path class="st0" d="M561.7,608.9l-172.4,0c-36.6,0-72.5-9.8-103.9-28.3c-30.4-17.9-55.9-43.6-73.6-74.1l32.6-18.9
				c14.5,25,35.2,45.9,60.1,60.6c25.6,15.1,54.9,23,84.8,23l172.4,0V608.9z"/>
			<circle class="st0" cx="580.7" cy="683.1" r="31.8"/>
			<path class="st0" d="M580.7,574.4c8.6,0,15.7,7,15.7,15.7c0,8.6-7,15.7-15.7,15.7c-8.6,0-15.7-7-15.7-15.7
				C565,581.5,572.1,574.4,580.7,574.4L580.7,574.4z M580.7,558.3c-17.6,0-31.8,14.2-31.8,31.8c0,17.6,14.2,31.8,31.8,31.8
				c17.6,0,31.8-14.2,31.8-31.8C612.5,572.5,598.3,558.3,580.7,558.3L580.7,558.3z"/>
			<path class="st0" d="M389.3,106c-71.4,0-138.9,24.9-192.6,70.6c-3.1,2.6-6.1,5.3-9.1,8.1c1.4-0.3,2.9-0.4,4.3-0.4
				c12.4,0,22.4,10,22.4,22.4c0,1.8-0.2,3.6-0.7,5.3c2.8-2.5,5.6-5,8.5-7.4c46.8-39.3,105.3-60.8,167.2-60.8
				c10.4,0,18.8-8.4,18.8-18.8C408.2,114.4,399.7,106,389.3,106z"/>
			<path class="st0" d="M191.9,191c8.6,0,15.7,7,15.7,15.7s-7,15.7-15.7,15.7c-8.6,0-15.7-7-15.7-15.7S183.3,191,191.9,191
				L191.9,191z M191.9,174.8c-17.6,0-31.8,14.2-31.8,31.8s14.2,31.8,31.8,31.8c17.6,0,31.8-14.2,31.8-31.8S209.5,174.8,191.9,174.8
				L191.9,174.8z"/>
			<circle class="st0" cx="580.7" cy="217.9" r="31.8"/>
			<circle class="st0" cx="136.5" cy="285.4" r="31.8"/>
			<circle class="st0" cx="580.7" cy="124.9" r="31.8"/>
			<circle class="st0" cx="228.2" cy="497.1" r="31.8"/>
			<circle class="st0" cx="203.2" cy="404" r="31.8"/>
			<circle class="st0" cx="389.5" cy="683.1" r="31.8"/>
			<circle class="st0" cx="294.7" cy="666.7" r="31.8"/>
		</g>
	</g>
	<g>
		<path class="st1" d="M673.1,548.5V260.7h77.6v227.1h209.3v60.7H673.1z"/>
		<path class="st1" d="M1080.1,549.9c-29.4,0-49.5-4.7-60.1-14.2c-10.6-9.5-15.9-28.1-15.9-55.9V328.2c0-27.8,5.3-46.4,15.9-55.9
			c10.6-9.5,30.6-14.2,60.1-14.2h209.3c29.5,0,49.5,4.8,60.1,14.2c10.6,9.5,15.9,28.1,15.9,55.9v151.5c0,27.8-5.3,46.4-15.9,55.9
			c-10.6,9.5-30.6,14.2-60.1,14.2H1080.1z M1287.8,324.1c0-3.3-0.6-5.4-1.9-6.4c-1.2-1-3.6-1.4-7.2-1.4h-187c-3.9,0-6.5,0.5-7.8,1.4
			c-1.4,1-2.1,3.1-2.1,6.4v157.3c0,3,0.7,5.1,2.1,6.2c1.4,1.1,4,1.7,7.8,1.7h187c3.6,0,6-0.5,7.2-1.7c1.2-1.1,1.9-3.2,1.9-6.2V324.1
			z"/>
		<path class="st1" d="M1508.6,549.9c-29.5,0-49.5-4.7-60.3-14.2c-10.7-9.5-16.1-28.1-16.1-55.9V330.3c0-27.8,5.4-46.4,16.1-55.9
			c10.7-9.5,30.8-14.2,60.3-14.2h259.7v57.4h-249c-3.6,0-6.1,0.5-7.4,1.4c-1.4,1-2.1,3.1-2.1,6.4v156.9c0,3.3,0.7,5.4,2.1,6.4
			c1.4,1,3.9,1.4,7.4,1.4h174.2c3.6,0,6.1-0.5,7.4-1.4c1.4-1,2.1-3.1,2.1-6.4v-50.4h-73.9v-54.1h149.9v102
			c0,27.8-5.2,46.4-15.7,55.9c-10.5,9.5-30.4,14.2-59.9,14.2H1508.6z"/>
		<path class="st1" d="M1847.9,547.9V260.1h77.6v287.8H1847.9z"/>
		<path class="st1" d="M2071.3,547.9c-29.5,0-49.5-4.7-60.3-14.2c-10.7-9.5-16.1-28.1-16.1-55.9V330.3c0-27.8,5.3-46.4,15.9-55.9
			c10.6-9.5,30.8-14.2,60.5-14.2h237.4v58.2H2082c-3.6,0-6.1,0.5-7.4,1.4c-1.4,1-2.1,3.1-2.1,6.4v153.2c0,3,0.7,5.1,2.1,6.2
			c1.4,1.1,3.9,1.7,7.4,1.7h226.7v60.7H2071.3z"/>
	</g>
</g>
</svg>
